<?xml version="1.0" encoding="utf-8"?>
<!DOCTYPE svg PUBLIC "-//W3C//DTD SVG 20010904//EN" "http://www.w3.org/TR/2001/REC-SVG-20010904/DTD/svg10.dtd">
<svg version="1.0" xmlns="http://www.w3.org/2000/svg" width="1082pt" height="1082pt" viewBox="0 0 1082 1082" style="" preserveAspectRatio="xMidYMid meet">
<g fill="#7BC65DFF" stroke="#7BC65DFF">
<path d="M 535.000 279.032 C 518.515 280.318 497.001 286.486 479.739 294.876 C 470.800 299.220 451.776 311.085 448.494 314.362 C 447.867 314.988 445.650 316.850 443.568 318.500 C 434.347 325.806 428.891 331.359 430.208 332.097 C 430.936 332.504 446.709 333.337 465.260 333.948 C 483.811 334.559 499.666 335.318 500.494 335.636 C 502.705 336.484 502.329 337.893 499.750 338.430 C 496.746 339.056 464.136 340.815 440.329 341.636 C 421.776 342.276 421.073 342.377 418.499 344.764 C 415.642 347.413 407.000 360.374 407.000 362.010 C 407.000 362.597 411.077 363.000 417.025 363.000 C 443.246 363.000 543.721 365.166 553.187 365.936 C 565.159 366.909 568.447 367.996 562.995 369.178 C 558.010 370.259 502.422 372.008 447.500 372.812 L 400.500 373.500 397.344 379.653 C 393.885 386.397 390.289 396.400 387.155 408.000 C 379.999 434.489 380.185 465.825 387.676 495.500 C 390.378 506.204 391.620 509.305 393.008 508.811 C 394.698 508.209 407.274 497.406 415.778 489.250 C 420.510 484.713 424.632 481.000 424.940 480.999 C 425.248 480.999 427.525 479.060 430.000 476.690 C 432.475 474.320 441.700 465.922 450.500 458.028 C 459.300 450.134 468.982 441.386 472.016 438.587 C 478.503 432.605 485.223 426.486 497.370 415.500 C 502.235 411.100 507.855 406.003 509.858 404.173 C 511.861 402.343 514.561 400.122 515.857 399.238 C 518.032 397.754 518.286 397.760 519.156 399.315 C 519.675 400.242 520.752 401.000 521.550 401.000 C 522.347 401.000 523.005 401.338 523.011 401.750 C 523.024 402.642 525.005 404.677 550.438 429.915 C 561.199 440.593 570.205 449.129 570.451 448.883 C 570.697 448.637 570.412 446.521 569.818 444.182 C 569.224 441.842 569.067 439.607 569.468 439.214 C 569.869 438.821 574.349 442.888 579.424 448.250 C 584.498 453.613 589.205 458.000 589.885 458.000 C 590.564 458.000 597.472 453.275 605.234 447.500 C 612.997 441.725 619.850 437.000 620.462 437.000 C 621.421 437.000 634.478 450.152 682.000 498.987 C 687.225 504.356 695.479 512.910 700.343 517.995 C 707.833 525.827 709.396 527.032 710.557 525.871 C 714.685 521.741 724.513 489.213 726.984 471.500 C 729.953 450.221 726.453 417.810 718.778 395.500 C 712.193 376.360 697.444 350.162 692.111 348.135 C 690.675 347.589 678.289 346.641 664.586 346.029 C 650.884 345.417 639.289 344.678 638.820 344.389 C 637.185 343.378 639.006 342.226 643.238 341.595 C 645.582 341.246 656.613 340.900 667.750 340.826 C 678.888 340.753 688.000 340.483 688.000 340.227 C 688.000 338.931 672.331 323.822 664.000 317.085 C 648.895 304.870 637.366 298.006 618.000 289.700 C 596.434 280.450 566.365 276.585 535.000 279.032 "/></g>
<g fill="#76707AFF" stroke="#76707AFF">
<path d="M 510.297 424.174 C 501.537 432.296 465.800 464.537 448.550 479.881 C 445.222 482.841 440.250 487.359 437.500 489.921 C 434.750 492.483 419.713 506.036 404.085 520.040 C 362.467 557.330 359.913 559.667 362.836 557.777 C 364.301 556.830 368.501 553.680 372.170 550.777 C 375.838 547.875 381.013 543.829 383.670 541.786 C 386.326 539.744 396.375 531.906 406.000 524.370 C 415.625 516.834 437.675 499.634 455.000 486.149 C 472.325 472.664 489.650 459.102 493.500 456.011 C 497.350 452.920 501.979 449.361 503.786 448.102 L 507.072 445.812 512.786 450.142 C 515.929 452.523 522.757 457.853 527.959 461.986 C 533.162 466.118 537.874 469.813 538.430 470.196 C 540.841 471.853 537.427 472.117 527.321 471.054 C 521.369 470.428 515.713 469.680 514.750 469.391 C 511.650 468.460 512.795 471.319 520.500 483.739 C 524.625 490.389 528.000 496.215 528.000 496.686 C 528.000 497.157 515.366 510.583 499.923 526.521 C 469.428 557.996 469.507 557.771 494.750 541.299 C 502.588 536.185 515.638 527.685 523.750 522.411 C 531.863 517.137 539.708 511.970 541.185 510.929 C 546.041 507.506 562.051 498.000 562.961 498.000 C 563.955 498.000 562.291 502.386 552.641 525.202 C 548.989 533.838 546.000 541.433 546.000 542.080 C 546.000 543.483 555.159 535.285 579.000 512.545 C 599.007 493.461 619.846 474.000 620.274 474.000 C 620.537 474.000 623.799 480.863 627.524 489.250 C 631.248 497.638 635.513 507.200 637.000 510.500 C 638.487 513.800 641.853 521.338 644.480 527.250 C 647.107 533.163 649.480 538.000 649.752 538.000 C 650.025 538.000 652.958 536.191 656.269 533.979 C 659.581 531.767 662.483 530.150 662.718 530.385 C 662.953 530.620 659.237 539.067 654.460 549.156 C 649.684 559.245 645.713 568.261 645.638 569.190 C 645.529 570.522 646.987 570.019 652.500 566.824 C 656.350 564.592 666.594 558.761 675.264 553.865 L 691.028 544.964 702.239 552.232 C 708.405 556.229 716.612 561.582 720.475 564.127 C 724.339 566.672 727.500 568.406 727.500 567.979 C 727.500 567.236 722.420 561.896 686.562 524.952 C 677.728 515.850 659.309 496.863 645.630 482.757 L 620.761 457.111 618.130 458.795 C 616.684 459.721 609.734 464.678 602.686 469.809 C 591.493 477.959 589.659 478.972 588.186 477.820 C 587.259 477.094 582.723 472.552 578.107 467.726 C 573.491 462.901 569.557 459.109 569.366 459.301 C 569.175 459.492 569.700 462.267 570.533 465.467 C 571.367 468.667 571.899 471.435 571.716 471.618 C 571.532 471.801 559.309 460.149 544.553 445.725 C 529.796 431.301 517.345 419.353 516.882 419.174 C 516.420 418.994 513.457 421.244 510.297 424.174 "/></g>
<g fill="#E3FFD9FF" stroke="#E3FFD9FF">
<path d="M 513.301 401.250 C 511.163 403.038 507.217 406.525 504.532 409.000 C 496.836 416.096 496.656 416.260 491.444 420.927 C 488.725 423.361 482.000 429.463 476.500 434.487 C 471.000 439.511 459.300 450.092 450.500 458.001 C 441.700 465.910 432.475 474.320 430.000 476.690 C 427.525 479.060 425.243 480.999 424.929 480.999 C 424.614 481.000 420.701 484.526 416.232 488.836 C 408.793 496.009 403.897 500.331 395.736 506.927 C 392.918 509.205 392.653 509.246 391.451 507.603 C 390.747 506.639 389.145 501.534 387.891 496.258 C 386.637 490.982 385.441 487.178 385.232 487.805 C 384.822 489.034 388.361 503.745 390.150 508.250 C 391.469 511.570 391.920 511.616 395.615 508.808 C 398.709 506.458 414.167 492.858 417.540 489.519 C 418.662 488.409 423.140 484.350 427.491 480.500 C 431.843 476.650 437.675 471.427 440.452 468.892 C 446.597 463.283 489.229 424.605 501.000 413.958 C 515.128 401.180 516.379 400.228 518.177 400.886 C 519.100 401.224 530.864 412.300 544.319 425.500 C 574.584 455.190 572.481 453.427 571.687 448.436 C 571.342 446.271 570.934 443.702 570.780 442.728 C 570.519 441.075 570.636 441.082 572.500 442.826 C 573.600 443.855 577.623 448.140 581.440 452.348 C 585.256 456.557 588.877 460.000 589.486 460.000 C 590.095 460.000 591.472 459.325 592.547 458.501 C 598.146 454.204 616.135 440.958 618.285 439.549 C 620.756 437.930 620.802 437.962 631.132 448.638 C 700.547 520.367 709.224 529.060 710.411 528.062 C 712.724 526.117 721.888 503.554 720.805 502.471 C 720.541 502.208 718.564 506.806 716.413 512.689 C 714.261 518.573 711.779 524.280 710.897 525.371 C 709.345 527.292 709.014 527.062 700.397 518.052 C 695.504 512.935 687.225 504.356 682.000 498.987 C 634.478 450.152 621.421 437.000 620.462 437.000 C 619.850 437.000 612.997 441.725 605.234 447.500 C 597.472 453.275 590.564 458.000 589.885 458.000 C 589.205 458.000 584.498 453.613 579.424 448.250 C 574.349 442.888 569.869 438.821 569.468 439.214 C 569.067 439.607 569.224 441.842 569.818 444.182 C 570.412 446.521 570.697 448.637 570.451 448.883 C 570.205 449.129 561.199 440.593 550.438 429.915 C 525.005 404.677 523.024 402.642 523.011 401.750 C 523.005 401.338 522.311 401.000 521.469 401.000 C 520.626 401.000 519.678 400.325 519.362 399.500 C 518.536 397.349 517.668 397.600 513.301 401.250 "/></g>
<g fill="#E3FFD9FF" stroke="#E3FFD9FF">
<path d="M 533.500 277.961 C 496.746 281.743 459.782 299.920 430.070 328.823 C 425.451 333.317 426.835 334.011 440.000 333.804 L 450.500 333.638 440.329 333.069 C 434.734 332.756 429.887 332.228 429.557 331.895 C 428.959 331.292 436.391 324.186 443.568 318.500 C 445.650 316.850 447.867 314.988 448.494 314.362 C 449.120 313.736 454.103 310.215 459.567 306.538 C 477.754 294.296 498.771 285.596 521.500 280.898 C 532.304 278.665 560.067 277.812 577.000 279.193 C 582.859 279.671 584.413 279.600 582.000 278.964 C 577.094 277.672 543.137 276.969 533.500 277.961 "/></g>
<g fill="#E3FFD9FF" stroke="#E3FFD9FF">
<path d="M 420.467 340.990 C 417.693 342.061 404.332 361.735 405.556 362.945 C 406.103 363.486 428.137 364.064 458.000 364.320 C 499.677 364.678 503.110 364.621 476.000 364.023 C 457.575 363.616 434.513 363.219 424.750 363.142 C 413.801 363.054 407.000 362.621 407.000 362.010 C 407.000 360.328 415.681 347.377 418.660 344.615 C 421.348 342.122 421.996 342.000 432.573 342.000 C 438.675 342.000 443.893 341.774 444.170 341.497 C 445.029 340.638 422.619 340.158 420.467 340.990 "/></g>
<g fill="#E3FFD9FF" stroke="#E3FFD9FF">
<path d="M 598.000 283.426 C 613.582 287.535 614.253 287.784 630.500 295.498 C 647.957 303.785 666.586 317.494 681.250 332.843 C 685.513 337.304 689.000 340.374 689.000 339.665 C 689.000 338.956 685.288 334.796 680.750 330.422 C 658.511 308.982 642.393 298.195 618.201 288.563 C 608.609 284.743 591.363 279.951 587.622 280.065 C 586.455 280.100 591.125 281.613 598.000 283.426 "/></g>
<g fill="#E3FFD9FF" stroke="#E3FFD9FF">
<path d="M 429.500 372.000 L 401.500 372.548 430.000 372.637 C 445.675 372.685 471.325 372.422 487.000 372.051 L 515.500 371.378 486.500 371.415 C 470.550 371.435 444.900 371.699 429.500 372.000 "/></g>
<g fill="#E3FFD9FF" stroke="#E3FFD9FF">
<path d="M 682.000 346.974 C 687.225 347.313 692.221 347.931 693.102 348.346 C 694.622 349.062 702.571 360.630 706.174 367.369 C 710.729 375.888 715.898 387.198 718.046 393.345 C 719.361 397.109 720.608 399.677 720.817 399.050 C 721.347 397.459 715.978 383.636 711.281 374.500 C 708.143 368.396 698.525 352.096 696.773 349.913 C 694.253 346.772 691.158 345.999 681.816 346.178 L 672.500 346.356 682.000 346.974 "/></g>
<g fill="#E3FFD9FF" stroke="#E3FFD9FF">
<path d="M 654.259 340.958 C 641.268 341.527 636.051 342.677 638.788 344.369 C 639.317 344.696 646.668 345.147 655.125 345.372 C 670.716 345.787 669.868 345.675 645.000 344.032 C 637.820 343.558 646.135 342.206 657.500 342.000 C 663.550 341.890 669.625 341.440 671.000 341.000 L 673.500 340.199 671.000 340.267 C 669.625 340.304 662.092 340.615 654.259 340.958 "/></g>
<g fill="#E3FFD9FF" stroke="#E3FFD9FF">
<path d="M 531.000 366.052 C 541.175 366.433 552.088 366.802 555.250 366.872 C 563.016 367.045 562.598 368.959 554.750 369.160 C 550.752 369.262 549.761 369.472 552.000 369.743 C 557.217 370.373 566.440 369.040 565.231 367.831 C 563.698 366.298 546.246 365.056 528.500 365.216 L 512.500 365.360 531.000 366.052 "/></g>
<g fill="#E3FFD9FF" stroke="#E3FFD9FF">
<path d="M 721.030 401.356 C 721.014 401.826 721.650 404.751 722.444 407.856 C 725.466 419.668 727.239 433.087 727.948 449.500 L 728.682 466.500 728.841 453.409 C 729.014 439.172 727.983 428.977 724.807 413.500 C 723.023 404.809 721.125 398.703 721.030 401.356 "/></g>
<g fill="#E3FFD9FF" stroke="#E3FFD9FF">
<path d="M 394.259 383.250 C 389.558 395.066 384.966 409.715 385.074 412.552 C 385.114 413.623 386.438 410.082 388.016 404.683 C 391.638 392.293 393.591 387.086 397.558 379.250 C 399.450 375.511 400.242 373.000 399.529 373.000 C 398.873 373.000 396.501 377.613 394.259 383.250 "/></g>
<g fill="#E3FFD9FF" stroke="#E3FFD9FF">
<path d="M 456.000 340.000 L 445.500 340.609 455.500 340.687 C 461.000 340.730 470.000 340.442 475.500 340.047 L 485.500 339.330 476.000 339.361 C 470.775 339.378 461.775 339.665 456.000 340.000 "/></g>
<g fill="#E3FFD9FF" stroke="#E3FFD9FF">
<path d="M 726.728 472.648 C 726.356 476.030 724.909 483.636 723.511 489.550 C 720.563 502.027 720.784 504.780 723.812 493.295 C 726.312 483.810 728.363 471.058 727.810 468.430 C 727.587 467.369 727.100 469.267 726.728 472.648 "/></g>
<g fill="#E3FFD9FF" stroke="#E3FFD9FF">
<path d="M 534.989 436.267 C 544.057 445.470 551.805 453.000 552.205 453.000 C 553.027 453.000 552.732 452.701 532.932 433.517 L 518.500 419.535 534.989 436.267 "/></g>
<g fill="#E3FFD9FF" stroke="#E3FFD9FF">
<path d="M 491.250 335.739 C 498.207 336.176 498.829 337.746 492.250 338.265 C 487.786 338.617 487.862 338.649 493.500 338.804 C 496.800 338.895 500.175 338.526 501.000 337.985 C 503.705 336.209 500.060 335.017 492.500 335.204 C 485.529 335.377 485.524 335.380 491.250 335.739 "/></g>
<g fill="#E3FFD9FF" stroke="#E3FFD9FF">
<path d="M 381.583 462.000 C 381.836 468.325 382.654 476.425 383.402 480.000 C 385.045 487.854 385.448 485.787 383.902 477.434 C 383.298 474.170 382.426 466.775 381.964 461.000 L 381.123 450.500 381.583 462.000 "/></g>
<g fill="#E3FFD9FF" stroke="#E3FFD9FF">
<path d="M 497.000 528.984 L 482.500 543.527 497.000 528.984 L 511.500 514.440 497.000 528.984 "/></g>
</svg>
