<?xml version="1.0" encoding="utf-8"?>
<!DOCTYPE svg PUBLIC "-//W3C//DTD SVG 1.1//EN" "http://www.w3.org/Graphics/SVG/1.1/DTD/svg11.dtd">
<svg version="1.1" xmlns="http://www.w3.org/2000/svg" width="500px" height="500px" viewBox="0 0 500 500" preserveAspectRatio="xMidYMid meet">
 <g fill="#dc6874">
  <path d="M217 351.50 l0 -7.50 1.65 0 c1.45 0 1.80 0.30 3.10 2.50 0.80 1.40 1.60 2.50 1.75 2.50 0.15 0 0.90 -1.15 1.65 -2.50 1.25 -2.25 1.60 -2.50 3.15 -2.50 l1.70 0 0 7.55 0 7.50 -1.55 -0.15 -1.55 -0.15 0 -4.65 c0.05 -4.75 -0.30 -5.25 -1.65 -2.55 -1 1.90 -2.55 1.90 -3.65 -0.05 -0.45 -0.80 -1 -1.50 -1.20 -1.50 -0.25 0 -0.40 2.05 -0.40 4.50 l0 4.50 -1.50 0 -1.50 0 0 -7.50z"/>
  <path d="M236.15 358 c-2.50 -2.30 -2.65 -7.10 -0.35 -8.95 3.65 -2.85 8 -0.95 8.35 3.70 l0.10 1.50 -3.35 0.15 c-2.55 0.10 -3.40 0.35 -3.40 0.85 0 1 2.30 1.50 3.80 0.80 1.50 -0.65 2.20 -0.35 2.20 0.90 0 2 -5.50 2.80 -7.35 1.05z m4.50 -7.05 c-0.65 -0.65 -2.75 -0.40 -3 0.40 -0.15 0.30 0.40 0.65 1.20 0.75 1.65 0.20 2.60 -0.35 1.80 -1.15z"/>
  <path d="M250.40 358.45 c-0.75 -0.40 -0.90 -1.20 -0.90 -4.20 0 -2.90 -0.15 -3.75 -0.70 -3.75 -1.25 0 -1.45 -1.70 -0.35 -2.45 0.60 -0.35 1.05 -1.20 1.05 -1.85 0 -1 0.25 -1.20 1.50 -1.20 1.35 0 1.50 0.15 1.50 1.50 0 1.30 0.20 1.50 1.30 1.50 1.05 0 1.25 0.20 1.10 1.15 -0.10 0.70 -0.55 1.15 -1.25 1.25 -1.05 0.15 -1.15 0.45 -1.15 2.85 0 2.25 0.15 2.75 1 3 0.65 0.20 1 0.75 1 1.55 0 1.05 -0.25 1.20 -1.60 1.20 -0.90 0 -2.05 -0.25 -2.50 -0.55z"/>
  <path d="M260.35 357.70 c-3.05 -3.05 -2 -8.25 2 -9.65 1.85 -0.65 2.15 -0.65 3.70 0.25 1.15 0.70 1.90 1.65 2.35 2.95 0.95 2.90 0.60 3.25 -3.15 3.25 -2.55 0 -3.25 0.15 -3.25 0.75 0 0.95 2.40 1.55 3.55 0.85 1.15 -0.75 2.45 -0.25 2.45 0.85 0 1.15 -2 2.05 -4.45 2.05 -1.40 0 -2.25 -0.35 -3.20 -1.30z m4.95 -6.45 c-0.20 -0.55 -0.75 -0.75 -1.65 -0.65 -1.95 0.25 -2 1.30 -0.05 1.50 2 0.20 2.10 0.15 1.70 -0.85z"/>
  <path d="M274.85 358.45 c-1.10 -0.65 -2.35 -3.40 -2.35 -5.20 0 -4.75 5.90 -7.30 9 -4 2.25 2.40 1.65 7.85 -0.95 9.25 -1.25 0.65 -4.55 0.60 -5.70 -0.05z m3.85 -2.25 c1.05 -0.40 1.55 -3.30 0.80 -4.70 -0.40 -0.75 -0.95 -1 -1.90 -0.90 -1.80 0.20 -2.60 2.80 -1.40 4.65 0.85 1.30 1.20 1.45 2.50 0.95z"/>
  <path d="M325.70 241.90 c-1 -1.20 -9.75 -10.20 -19.40 -20.10 -9.65 -9.85 -17.85 -18.35 -18.20 -18.85 -0.35 -0.55 -0.85 -0.95 -1.15 -0.95 -0.25 0 -3.55 2.30 -7.30 5.15 -3.80 2.80 -7 5.15 -7.15 5.25 -0.15 0.05 -2.25 -2.15 -4.70 -4.90 -2.45 -2.75 -4.55 -4.95 -4.65 -4.80 -0.10 0.10 0.15 1.40 0.55 2.85 0.45 1.45 0.80 2.85 0.80 3.15 0 0.30 -5.70 -5.15 -12.65 -12.10 l-12.70 -12.70 -18.95 17.15 c-10.40 9.40 -23.40 21.15 -28.80 26.05 -5.40 4.90 -10.05 8.90 -10.25 8.90 -0.85 0 -3.50 -10.40 -4.40 -17 -2 -14.50 0.10 -29.70 5.90 -42.75 l1.80 -4 33.40 -0.55 c33.25 -0.60 44.60 -1 43.80 -1.70 -1 -0.90 -17.25 -1.55 -44.65 -1.85 -16.35 -0.15 -29.80 -0.35 -29.90 -0.40 -0.25 -0.20 4.05 -6.70 5.75 -8.65 l1.40 -1.65 6.50 0 c3.60 0 10 -0.20 14.25 -0.45 4.25 -0.25 9.60 -0.50 11.85 -0.60 4.10 -0.10 6.15 -0.60 4.65 -1.10 -1.40 -0.45 -7.30 -0.80 -20.50 -1.10 -7.30 -0.15 -13.35 -0.45 -13.50 -0.55 -0.55 -0.55 8.60 -8.45 14 -12.10 8.15 -5.45 15.85 -8.95 25 -11.30 6.55 -1.65 11.95 -2.25 20.45 -2.25 16.55 0 31.70 4.80 45.40 14.30 5 3.50 14.55 12.20 15.75 14.40 0.45 0.85 0.30 0.90 -3.20 0.65 -3.45 -0.20 -19.40 0.55 -19.85 0.95 -0.10 0.10 -0.10 0.30 0.05 0.45 0.35 0.35 11.35 0.95 22.75 1.20 3.15 0.05 3.35 0.25 7.50 7.15 6.75 11.25 9.80 20.75 11.15 34.90 0.95 9.40 -0.05 19.35 -2.80 28.50 -1.90 6.30 -4.85 13.50 -5.50 13.50 -0.30 0 -1.45 -0.95 -2.50 -2.10z"/>
 </g>
 <g fill="#0d6efe">
  <path d="M202.70 330.45 c-2.30 -0.65 -3.90 -2.65 -3.85 -4.80 0.10 -3.35 3.75 -5.05 6.20 -2.85 0.85 0.75 1 1.35 0.80 2.80 -0.20 1.45 -0.10 1.90 0.45 1.90 1.80 0 5.15 -5.35 5.20 -8.20 0 -0.85 -0.45 -1.95 -1 -2.55 -0.85 -0.90 -2.20 -4.10 -8.65 -20 -0.90 -2.25 -1.60 -3.20 -2.75 -3.75 -1.20 -0.55 -1.60 -1.10 -1.60 -2.10 l0 -1.40 7.25 0 7.25 0 0 1.50 c0 1.30 -0.20 1.50 -1.30 1.50 -1.50 0 -3.20 0.80 -3.20 1.55 0 0.85 6.70 18.95 7 18.95 0.35 0 7 -18 7 -18.90 0 -0.75 -2.05 -1.60 -3.80 -1.60 -1 0 -1.20 -0.25 -1.20 -1.50 l0 -1.50 6.50 0 6.50 0 0 1.45 c0 1.25 -0.25 1.55 -1.50 1.80 -1.90 0.40 -2 0.60 -6.75 13.25 -6.85 18.15 -9.85 23.30 -14.20 24.50 -2.05 0.55 -2.25 0.55 -4.35 -0.05z"/>
  <path d="M122.65 317.05 c-2.55 -0.65 -6.10 -3 -6.90 -4.55 -0.85 -1.65 -1 -4.15 -0.25 -5.50 0.25 -0.50 1.20 -1.15 2.05 -1.45 1.95 -0.70 3.80 0.10 4.90 2.05 0.70 1.20 0.70 1.50 -0.10 3.10 l-0.85 1.80 1.55 0.80 c2.10 1.05 7.25 1.10 9.30 0 1.80 -0.90 3.15 -3.05 3.15 -5.05 0 -2.25 -1.50 -4.10 -5.15 -6.35 -8.60 -5.35 -11.15 -7.25 -12.60 -9.30 -1.35 -2 -1.50 -2.55 -1.50 -6.10 0 -3.60 0.10 -4.05 1.55 -5.85 2.40 -2.95 5.20 -4.30 9.65 -4.55 5.70 -0.30 9.70 1.15 12.20 4.45 3.15 4.30 -1.75 9.90 -5.40 6.20 -1.45 -1.40 -1.60 -3.05 -0.40 -4.70 0.75 -1.10 0.75 -1.25 -0.10 -1.85 -0.45 -0.35 -2.05 -0.80 -3.50 -0.95 -2.05 -0.30 -3.10 -0.15 -4.90 0.65 -2.60 1.15 -3.35 2.25 -3.35 4.85 0 3.65 1.45 5.20 9 9.65 8.35 4.95 10.85 8.25 10.35 13.70 -0.50 5.85 -4.75 8.95 -12.60 9.20 -2.45 0.10 -5.20 0 -6.10 -0.25z"/>
  <path d="M178.25 316.50 c-0.90 -0.60 -2.60 -2.95 -4.25 -5.85 -2.85 -5 -5 -7.15 -7.30 -7.15 -1.15 0 -1.20 0.10 -1.20 4.65 0 5.10 0.35 5.85 2.60 5.85 1.25 0 1.40 0.20 1.40 1.50 l0 1.55 -7.10 -0.15 -7.10 -0.15 0 -1.20 c0 -0.95 0.35 -1.35 1.45 -1.65 2.75 -0.70 2.75 -0.75 2.75 -18.25 0 -15.40 -0.05 -16.15 -0.95 -16.65 -0.55 -0.25 -1.55 -0.50 -2.25 -0.50 -1.10 0 -1.30 -0.25 -1.30 -1.45 0 -1.35 0.10 -1.40 2.90 -1.75 1.55 -0.15 3.55 -0.45 4.35 -0.55 3 -0.55 3 -0.50 3.15 13.25 0.10 8.60 0.35 12.50 0.70 12.50 0.75 0 5.20 -3.45 7.35 -5.70 l1.75 -1.80 -2.35 0 -2.35 0 0 -1.75 0 -1.75 7.50 0 7.50 0 0 1.75 c0 1.55 -0.15 1.75 -1.35 1.75 -2.05 0 -6.30 2.35 -9.25 5.10 -1.85 1.70 -2.45 2.55 -1.95 2.75 1.90 0.80 4.70 4.15 6.65 7.95 1.20 2.30 2.45 4.30 2.85 4.45 1.05 0.40 2.05 -0.70 2.05 -2.30 0 -1.30 0.15 -1.45 1.55 -1.45 l1.60 0 -0.25 2.60 c-0.20 2.10 -0.55 2.85 -1.85 4 -1.95 1.75 -5 1.90 -7.30 0.40z"/>
  <path d="M252.70 316.80 c-6.60 -2.15 -11.05 -7.90 -12.25 -15.90 -1.60 -10.05 2.75 -19.70 10.45 -23.30 2.55 -1.20 3.40 -1.35 8.60 -1.35 5.25 0 5.95 0.10 8.25 1.30 2.85 1.50 5.15 3.65 5.80 5.35 0.25 0.65 0.45 2.25 0.45 3.55 0 1.85 -0.25 2.60 -1.15 3.45 -1.50 1.40 -4.85 1.50 -6 0.20 -1.10 -1.20 -1.10 -4.50 0 -5.70 2 -2.20 -2 -5.10 -7 -5.05 -3.70 0.05 -7 1.70 -9.20 4.55 -2.20 2.90 -2.75 4.90 -3 11.45 -0.35 7.60 0.75 11.45 4.30 15.10 5.45 5.60 14.30 4.50 17.55 -2.20 0.95 -2 1.25 -2.25 2.75 -2.25 0.95 0 1.85 0.25 2 0.55 0.55 0.85 -2.20 5.80 -4 7.20 -3.25 2.45 -6.15 3.40 -11 3.55 -2.90 0.15 -5.25 -0.05 -6.55 -0.50z"/>
  <path d="M294.30 316.35 c-2.20 -1.25 -3.80 -3.85 -3.80 -6.10 0 -4.05 3.65 -7.20 11.25 -9.75 4.90 -1.65 6.25 -2.70 6.25 -4.80 0 -1.35 -1.95 -3 -4.05 -3.45 -0.85 -0.20 -2.55 -0.10 -3.75 0.25 l-2.15 0.60 0.75 1.45 c0.95 1.90 0.10 3.95 -1.95 4.65 -3.50 1.25 -5.80 -3.20 -3.35 -6.35 2 -2.50 4.75 -3.55 9.50 -3.55 5.25 -0.05 8 1 9.65 3.65 1 1.65 1.10 2.60 1.35 11.05 l0.25 9.25 1.25 0 c1 0 1.35 -0.35 1.75 -1.60 0.35 -1.35 0.70 -1.65 1.85 -1.65 1.65 0 1.80 0.95 0.60 4 -0.90 2.25 -2.75 3.50 -5.20 3.50 -1.55 0 -4.50 -1.20 -4.50 -1.90 0 -0.20 -0.35 -0.75 -0.75 -1.30 -0.65 -0.85 -0.75 -0.85 -2.60 0.60 -3.70 2.85 -8.85 3.50 -12.35 1.45z m10.75 -4.20 c2.10 -1.80 2.95 -3.95 2.95 -7.65 0 -1.65 -0.10 -3 -0.20 -3 -0.85 0 -7.75 3.25 -8.65 4.10 -1.35 1.30 -2.35 4 -1.90 5.40 0.90 2.90 5 3.50 7.80 1.15z"/>
  <path d="M336.95 316.75 c-4.20 -1.35 -6.40 -4.55 -4.90 -7.20 0.55 -1 1.20 -1.35 2.65 -1.45 2.65 -0.25 3.90 1 3.70 3.60 -0.15 1.75 0 2.05 1.10 2.35 4.05 1.15 8.50 -0.10 8.50 -2.35 0 -1.70 -1.75 -3.30 -6.05 -5.45 -7.55 -3.85 -9.45 -5.80 -9.45 -9.90 0 -4.65 4.85 -7.75 11.30 -7.20 6.20 0.50 10.20 3.85 8.60 7.25 -0.90 1.85 -3.05 2.55 -4.80 1.55 -1.10 -0.60 -1.35 -1.10 -1.40 -2.90 -0.05 -2.60 -0.65 -3.05 -4 -3.05 -2 0 -2.75 0.25 -3.60 1.15 -2.35 2.50 -1 4.25 6.40 8.30 2.60 1.45 5.30 3.10 5.90 3.70 3.80 3.55 3.05 8.55 -1.60 10.95 -2.65 1.40 -9.05 1.70 -12.35 0.65z"/>
  <path d="M374 316.50 c-3.35 -1.75 -3.75 -3.05 -3.90 -13.85 l-0.20 -9.65 -1.70 0 c-1.60 0 -1.70 -0.10 -1.70 -1.75 0 -1.45 0.20 -1.75 1.05 -1.75 2.50 0 3.95 -2.20 3.95 -6.05 l0 -1.95 2.25 0 2.25 0 0 4 0 4 4 0 4 0 0 1.75 0 1.75 -4.05 0 -4 0 0.15 9.45 c0.15 8.45 0.25 9.55 1.10 10.50 1.85 2.05 4.30 1.15 5.70 -2.05 0.45 -1.10 0.90 -1.40 2.10 -1.40 1.25 0 1.50 0.20 1.30 0.90 -0.10 0.45 -0.40 1.40 -0.55 2.10 -0.45 1.55 -2.05 3.35 -3.85 4.30 -1.90 1 -5.80 0.85 -7.90 -0.30z"/>
  <path d="M297.50 264.35 c0 -0.10 2.05 -4.45 4.50 -9.60 2.50 -5.20 4.40 -9.50 4.30 -9.60 -0.10 -0.15 -1.50 0.70 -3 1.85 -1.55 1.20 -2.95 2 -3.10 1.85 -0.15 -0.15 -2.85 -6.10 -6 -13.20 -3.15 -7.10 -6.10 -13.75 -6.55 -14.75 l-0.90 -1.85 -17.50 16.45 c-9.60 9.05 -17.55 16.35 -17.65 16.25 -0.10 -0.10 1.85 -4.95 4.35 -10.80 2.50 -5.85 4.50 -10.80 4.45 -11 -0.10 -0.25 -9.80 5.95 -21.65 13.75 -11.80 7.80 -21.60 14.05 -21.75 13.95 -0.10 -0.10 3.25 -3.70 7.50 -8.05 4.25 -4.30 10.45 -10.60 13.70 -13.95 l5.95 -6.05 -3.85 -6.10 c-2.10 -3.35 -3.80 -6.35 -3.80 -6.60 0 -0.25 0.60 -0.35 1.40 -0.20 2.55 0.50 11.15 1.45 11.35 1.20 0.10 -0.10 -3.20 -2.80 -7.40 -6 l-7.60 -5.85 -1.75 1.35 c-0.95 0.70 -16.60 12.95 -34.75 27.10 -29.70 23.20 -35.65 27.80 -34 26.15 0.30 -0.25 9.60 -8.70 20.75 -18.70 11.10 -10 27.85 -25.10 37.25 -33.55 l17 -15.35 7.75 7.60 c4.25 4.20 10.05 9.85 12.85 12.60 l5.15 5 -1 -3.40 c-0.50 -1.90 -0.80 -3.35 -0.55 -3.25 0.20 0.10 2.35 2.30 4.75 4.90 2.40 2.60 4.60 4.70 4.85 4.65 0.20 -0.10 3.45 -2.40 7.15 -5.15 3.75 -2.75 7 -5 7.25 -5 0.25 0 0.85 0.50 1.25 1.10 0.45 0.60 4.35 4.70 8.70 9.10 9.35 9.55 37.10 38.25 39.60 41 2.10 2.35 2.35 2.45 -8.40 -4.55 l-8.70 -5.65 -9.80 5.55 c-5.40 3.10 -10.35 5.95 -10.95 6.35 -0.65 0.40 -1.15 0.60 -1.15 0.45z"/>
 </g>
</svg>